<svg width="60" height="60" viewBox="0 0 60 60" fill="none" xmlns="http://www.w3.org/2000/svg">
<path d="M38.0825 13.72C35.975 13.625 35.34 13.605 30 13.605C24.66 13.605 24.0275 13.625 21.92 13.72C16.495 13.9675 13.9675 16.5375 13.7225 21.9175C13.625 24.0275 13.6025 24.66 13.6025 30C13.6025 35.34 13.625 35.9725 13.72 38.0825C13.9675 43.4525 16.485 46.0325 21.9175 46.28C24.025 46.375 24.66 46.3975 30 46.3975C35.3425 46.3975 35.975 46.3775 38.0825 46.2825C43.5075 46.035 46.0325 43.46 46.28 38.085C46.375 35.975 46.395 35.3425 46.395 30.0025C46.395 24.6625 46.375 24.03 46.28 21.9225C46.0325 16.54 43.5025 13.9675 38.0825 13.72V13.72ZM30 40.27C24.3275 40.27 19.73 35.6725 19.73 30C19.73 24.3275 24.33 19.73 30 19.73C35.67 19.73 40.27 24.3275 40.27 30C40.27 35.6725 35.6725 40.27 30 40.27ZM40.6775 21.725C39.3525 21.725 38.2775 20.65 38.2775 19.325C38.2775 18 39.3525 16.925 40.6775 16.925C42.0025 16.925 43.0775 18 43.0775 19.325C43.0775 20.65 42.0025 21.725 40.6775 21.725ZM36.6675 30C36.6675 33.6825 33.6825 36.6675 30 36.6675C26.3175 36.6675 23.3325 33.6825 23.3325 30C23.3325 26.3175 26.3175 23.3325 30 23.3325C33.6825 23.3325 36.6675 26.3175 36.6675 30ZM47.5 0H12.5C5.5975 0 0 5.5975 0 12.5V47.5C0 54.4025 5.5975 60 12.5 60H47.5C54.405 60 60 54.4025 60 47.5V12.5C60 5.5975 54.405 0 47.5 0V0ZM49.88 38.245C49.55 45.5175 45.5025 49.5475 38.2475 49.88C36.1125 49.9775 35.4325 50 30 50C24.5675 50 23.89 49.9775 21.755 49.88C14.485 49.5475 10.455 45.51 10.12 38.245C10.0225 36.1125 10 35.4325 10 30C10 24.57 10.0225 23.8875 10.12 21.755C10.455 14.485 14.49 10.4525 21.755 10.1225C23.89 10.0225 24.5675 10 30 10C35.4325 10 36.1125 10.0225 38.2475 10.12C45.5175 10.4525 49.555 14.4975 49.88 21.7525C49.9775 23.8875 50 24.57 50 30C50 35.4325 49.9775 36.1125 49.88 38.245V38.245Z" fill="white"/>
</svg>
