<svg width="60" height="60" viewBox="0 0 60 60" fill="none" xmlns="http://www.w3.org/2000/svg">
<path fill-rule="evenodd" clip-rule="evenodd" d="M6.47526 3.305L13.5853 0L23.6878 19.7225L16.8778 23.0775C15.5328 26.225 22.2753 38.8 25.1203 39.0075C25.3453 38.8625 31.7978 35.6875 31.7978 35.6875L42.0728 55.5175C42.0728 55.5175 35.1628 58.9025 34.9378 59.0075C33.4278 59.6975 31.8678 60.0125 30.2828 60C16.0878 59.8925 -0.07474 33.59 0.00026004 16.365C0.02776 10.4875 1.94276 5.6675 6.47526 3.305V3.305ZM11.3003 6.49L8.74276 7.75C-4.49224 14.655 19.1853 60.7125 32.8628 54.465L35.2928 53.28L29.6153 42.3225L27.0503 43.575C19.1428 47.4425 6.39526 23.0275 14.4128 18.73L16.9303 17.485L11.3003 6.49V6.49ZM33.7503 22.5C35.8203 22.5 37.5003 24.18 37.5003 26.25C37.5003 28.32 35.8203 30 33.7503 30C31.6803 30 30.0003 28.32 30.0003 26.25C30.0003 24.18 31.6803 22.5 33.7503 22.5ZM56.2503 22.5C58.3203 22.5 60.0003 24.18 60.0003 26.25C60.0003 28.32 58.3203 30 56.2503 30C54.1803 30 52.5003 28.32 52.5003 26.25C52.5003 24.18 54.1803 22.5 56.2503 22.5ZM45.0003 22.5C47.0703 22.5 48.7503 24.18 48.7503 26.25C48.7503 28.32 47.0703 30 45.0003 30C42.9303 30 41.2503 28.32 41.2503 26.25C41.2503 24.18 42.9303 22.5 45.0003 22.5Z" fill="#DF0033"/>
</svg>
